<svg width="20" height="19" viewBox="0 0 20 19" fill="none" xmlns="http://www.w3.org/2000/svg">
    <path d="M9 13V11H11V13H9ZM8 4H12V2H8V4ZM2 19C1.45 19 0.979002 18.804 0.587002 18.412C0.195002 18.02 -0.000664969 17.5493 1.69779e-06 17V13H7V14C7 14.2833 7.096 14.521 7.288 14.713C7.48 14.905 7.71734 15.0007 8 15H12C12.2833 15 12.521 14.904 12.713 14.712C12.905 14.52 13.0007 14.2827 13 14V13H20V17C20 17.55 19.804 18.021 19.412 18.413C19.02 18.805 18.5493 19.0007 18 19H2ZM1.69779e-06 11V6C1.69779e-06 5.45 0.196002 4.979 0.588002 4.587C0.980002 4.195 1.45067 3.99934 2 4H6V2C6 1.45 6.196 0.979002 6.588 0.587002C6.98 0.195002 7.45067 -0.000664969 8 1.69779e-06H12C12.55 1.69779e-06 13.021 0.196002 13.413 0.588002C13.805 0.980002 14.0007 1.45067 14 2V4H18C18.55 4 19.021 4.196 19.413 4.588C19.805 4.98 20.0007 5.45067 20 6V11H13V10C13 9.71667 12.904 9.479 12.712 9.287C12.52 9.095 12.2827 8.99934 12 9H8C7.71667 9 7.479 9.096 7.287 9.288C7.095 9.48 6.99934 9.71734 7 10V11H1.69779e-06Z" fill="white"/>
</svg>
