<svg width="24" height="24" viewBox="0 0 24 24" fill="none" xmlns="http://www.w3.org/2000/svg">
    <path d="M12 14C12.55 14 13.021 13.804 13.413 13.412C13.805 13.02 14.0007 12.5493 14 12C14 11.45 13.804 10.979 13.412 10.587C13.02 10.195 12.5493 9.99934 12 10C11.45 10 10.979 10.196 10.587 10.588C10.195 10.98 9.99934 11.4507 10 12C10 12.55 10.196 13.021 10.588 13.413C10.98 13.805 11.4507 14.0007 12 14ZM8 18H16V17.425C16 17.025 15.8917 16.6583 15.675 16.325C15.4583 15.9917 15.1583 15.7417 14.775 15.575C14.3417 15.3917 13.8957 15.25 13.437 15.15C12.9783 15.05 12.4993 15 12 15C11.5 15 11.0207 15.05 10.562 15.15C10.1033 15.25 9.65767 15.3917 9.225 15.575C8.84167 15.7417 8.54167 15.9917 8.325 16.325C8.10834 16.6583 8 17.025 8 17.425V18ZM18 22H6C5.45 22 4.979 21.804 4.587 21.412C4.195 21.02 3.99934 20.5493 4 20V4C4 3.45 4.196 2.979 4.588 2.587C4.98 2.195 5.45067 1.99934 6 2H14L20 8V20C20 20.55 19.804 21.021 19.412 21.413C19.02 21.805 18.5493 22.0007 18 22ZM18 20V8.85L13.15 4H6V20H18Z" fill="white"/>
</svg>