<svg width="19" height="20" viewBox="0 0 19 20" fill="none" xmlns="http://www.w3.org/2000/svg">
    <path d="M3.5 9L9 0L14.5 9H3.5ZM14.5 20C13.25 20 12.1873 19.5623 11.312 18.687C10.4367 17.8117 9.99933 16.7493 10 15.5C10 14.25 10.4377 13.1873 11.313 12.312C12.1883 11.4367 13.2507 10.9993 14.5 11C15.75 11 16.8127 11.4377 17.688 12.313C18.5633 13.1883 19.0007 14.2507 19 15.5C19 16.75 18.5623 17.8127 17.687 18.688C16.8117 19.5633 15.7493 20.0007 14.5 20ZM0 19.5V11.5H8V19.5H0Z" fill="white"/>
</svg>
