<svg width="12" height="19" viewBox="0 0 12 19" fill="none" xmlns="http://www.w3.org/2000/svg">
    <path d="M0 19V17L0.413 16.75C0.687667 16.5833 0.987667 16.3373 1.313 16.012C1.63833 15.6867 1.934 15.27 2.2 14.762C2.46667 14.254 2.6 13.6667 2.6 13C2.6 12.8167 2.58733 12.6417 2.562 12.475C2.53667 12.3083 2.508 12.15 2.476 12H0V10H1.5C1.15 9.45 0.812667 8.87067 0.488 8.262C0.163333 7.65333 0.000666667 6.89933 0 6C0 4.46667 0.533333 3.16667 1.6 2.1C2.66667 1.03333 3.96667 0.5 5.5 0.5C6.68333 0.5 7.73333 0.825 8.65 1.475C9.56667 2.125 10.225 2.96667 10.625 4L8.775 4.775C8.525 4.10833 8.104 3.56233 7.512 3.137C6.92 2.71167 6.24933 2.49933 5.5 2.5C4.53333 2.5 3.70833 2.84167 3.025 3.525C2.34167 4.20833 2 5.03333 2 6C2 6.8 2.2 7.46667 2.6 8C3 8.53333 3.40833 9.2 3.825 10H8V12H4.525C4.55833 12.15 4.57933 12.3083 4.588 12.475C4.59667 12.6417 4.60067 12.8167 4.6 13C4.6 13.8333 4.454 14.5833 4.162 15.25C3.87 15.9167 3.516 16.5 3.1 17H8C8.66667 17 9.175 16.825 9.525 16.475C9.875 16.125 10.1167 15.675 10.25 15.125L12 16C11.8167 16.9167 11.3457 17.646 10.587 18.188C9.82833 18.73 8.966 19.0007 8 19H0Z" fill="white"/>
</svg>
