<svg width="125" height="39" viewBox="0 0 125 39" fill="none" xmlns="http://www.w3.org/2000/svg">
<g clip-path="url(#clip0_1453_486)">
<path d="M101.947 16.2744L106.52 28.9765H109.026L111.896 20.3784L114.815 28.9765H117.321L122 16.2744H118.901L116.215 24.8832H116.025L113.251 16.2744H110.841L108.011 24.8449L107.961 24.8441L105.217 16.2744H101.947Z" fill="#009EE3"/>
<path d="M101.553 22.3679C101.394 26.5897 99.2775 28.8455 95.0688 29C91.2432 28.8347 88.9116 26.9323 88.7627 22.4921C89.0218 18.3878 90.9465 15.8855 95.3537 15.7708C99.6304 15.9726 101.455 18.3902 101.553 22.3679ZM95.1576 18.2971C90.9474 18.142 90.8179 26.3481 95.1576 26.4908V26.4886C99.3678 26.6438 99.4974 18.4377 95.1576 18.295" fill="#009EE3"/>
<path d="M73.6677 28.9765H70.4271V16.2927H73.1565L73.5368 17.617C74.5787 16.6458 75.6871 16.017 76.9159 16.008C77.6882 15.9921 78.3267 16.1782 78.8546 16.531L77.6418 19.2707C77.2038 19.0068 76.7097 18.8663 76.1536 18.8618C75.6206 18.847 75.1147 19.0139 74.6249 19.2882C74.274 19.5083 73.9551 19.7444 73.6627 19.9937L73.6677 28.9765Z" fill="#009EE3"/>
<path d="M83.5051 28.9765H80.2645V16.2927H82.9939L83.3743 17.617C84.4161 16.6458 85.5245 16.017 86.7533 16.008C87.5257 15.9921 88.1641 16.1782 88.6921 16.531L87.4793 19.2707C87.0413 19.0068 86.5471 18.8663 85.9911 18.8618C85.458 18.847 84.9521 19.0139 84.4623 19.2882C84.1114 19.5083 83.7926 19.7444 83.5002 19.9937L83.5051 28.9765Z" fill="#009EE3"/>
<path d="M59.5991 9L50.4598 28.9578H54.1779L59.5991 16.3755L65.0335 28.9578H68.7467L59.5991 9Z" fill="#009EE3"/>
<path d="M40.7594 23.1346C40.8599 24.2096 41.272 24.9265 41.867 25.4331C43.365 26.6208 45.2789 26.6927 47.689 25.4331L48.4678 27.5109C47.4172 28.3319 45.9757 28.7434 44.2966 28.906C42.3158 29.1308 40.6824 28.4564 39.2773 27.1912C37.635 25.3384 37.1893 23.1228 37.6427 20.6348C38.1098 18.4418 39.182 16.8075 41.1985 16.0454C42.5013 15.575 43.8962 15.5033 45.433 16.0454C48.1305 17.235 49.1791 19.711 49.0119 23.1353L40.7594 23.1346ZM43.1746 18.073C41.5164 18.13 40.8108 19.3151 40.7021 20.8848H45.6472C45.5673 19.1315 44.6459 18.1122 43.1746 18.073Z" fill="#009EE3"/>
<path d="M26.8783 15.9605H23.6423V24.3113C23.6794 25.4901 23.9826 26.5172 24.5885 27.3717C25.1643 28.0447 25.8286 28.528 26.6235 28.7306C27.8943 29.018 29.1024 28.9709 30.2214 28.4495C30.8681 28.1484 31.4248 27.7959 31.8646 27.3763L32.4359 28.6322L35.114 28.6416C34.9794 28.1825 34.9162 27.6524 34.8993 27.0763V15.9605H31.6225L31.6201 25.3108C30.0366 26.6563 27.9717 26.7693 27.2083 25.3108C26.9834 24.9059 26.8633 24.447 26.8685 23.9238L26.8783 15.9605Z" fill="#009EE3"/>
<path d="M19.5009 9.65976L16.2677 10.4224L16.2513 26.1446C16.299 27.472 16.7988 28.2807 17.75 28.6517C19.0749 29.0815 20.4184 28.9998 21.7249 28.2487L21.3181 25.8584C20.0593 26.2414 19.426 26.0718 19.5058 24.6158L19.5009 9.65976Z" fill="#009EE3"/>
<path d="M5.25831 16.0177C7.47927 15.4364 9.31411 15.5999 10.8254 16.3876C12.1509 17.1134 13.0125 18.2289 13.5168 19.6445C13.9704 21.0983 13.9317 22.592 13.4816 24.1191C13.1742 25.5075 12.2399 26.6456 10.843 27.599C9.58535 28.5027 7.83591 28.8739 5.77696 28.9099C4.42798 28.8894 3.16546 28.5917 2 27.9831V10.4216L5.24183 9.65836L5.25831 16.0177ZM5.2034 18.7911V26.0091C6.16535 26.3981 7.1273 26.4228 8.08926 26.0833C9.7904 25.2613 10.7728 23.9245 10.5935 21.7554C10.3519 19.6849 9.28391 18.4999 7.21952 18.3828C6.51149 18.3597 5.83846 18.4915 5.2034 18.7911Z" fill="#009EE3"/>
</g>
<defs>
<clipPath id="clip0_1453_486">
<rect width="120" height="20" fill="white" transform="translate(2 9)"/>
</clipPath>
</defs>
</svg>
