<svg width="174" height="54" viewBox="0 0 174 54" fill="#ffffff" xmlns="http://www.w3.org/2000/svg">
    <path d="M95.7178 36.2283C95.6038 35.9681 95.5403 35.7193 95.4254 35.4557C95.281 35.1242 95.0678 34.8014 94.9243 34.4743C94.7973 34.1845 94.7172 33.907 94.5902 33.6181C94.464 33.3319 94.3048 33.0648 94.1726 32.762C94.0342 32.4453 93.8994 32.1086 93.7549 31.7806C93.6514 31.5449 93.4852 31.3117 93.3791 31.0707C93.259 30.7975 93.1868 30.5313 93.0659 30.2563C92.9493 29.991 92.7649 29.7282 92.6483 29.4629C92.5282 29.1905 92.4569 28.9269 92.3351 28.6485C92.1837 28.3022 91.9635 27.9699 91.813 27.6253C91.7199 27.4113 91.6773 27.2138 91.5833 26.9989C91.445 26.6805 91.2405 26.3725 91.1031 26.0593C90.7037 25.1536 90.354 24.3149 89.9546 23.4074C89.8441 23.156 89.6684 22.9063 89.5579 22.6557C89.4309 22.3686 89.3508 22.0893 89.2238 21.7996C89.0803 21.4725 88.8688 21.1505 88.7227 20.8182C88.6235 20.5929 88.5713 20.3753 88.4721 20.15C88.3294 19.8246 88.1154 19.4975 87.971 19.1686C87.5142 18.1315 87.1018 17.1023 86.5928 16.12C86.3858 15.7198 86.2544 15.2848 86.0708 14.8672C85.9664 14.6305 85.7993 14.3939 85.6949 14.1572C85.5749 13.884 85.5027 13.6178 85.3817 13.3429C85.2556 13.0549 85.0703 12.7591 84.9432 12.4659C84.7275 11.9682 84.6796 11.2278 83.9827 11.213C83.8418 11.3244 83.6721 11.3827 83.5651 11.5262C83.2327 11.9726 83.0709 12.5964 82.8343 13.134C82.7246 13.3829 82.5498 13.6308 82.4375 13.8858C82.3384 14.1111 82.2861 14.3277 82.187 14.5539C82.0417 14.8863 81.8294 15.2073 81.6858 15.5353C81.571 15.7972 81.5075 16.0487 81.3935 16.3079C81.2821 16.562 81.1064 16.8108 80.9968 17.0596C80.8645 17.3598 80.7749 17.653 80.6418 17.9575C80.5026 18.2768 80.2999 18.5831 80.1615 18.8972C80.0345 19.186 79.9545 19.4644 79.8274 19.7533C79.723 19.9899 79.556 20.2266 79.4516 20.4632C78.0491 23.6458 76.6118 26.7388 75.2128 29.9222C75.1023 30.1737 74.9265 30.4234 74.816 30.6739C74.6629 31.022 74.5515 31.37 74.3984 31.718C74.2879 31.9686 74.1122 32.2183 74.0017 32.4697C73.6023 33.3763 73.2534 34.2133 72.8532 35.1216C72.7488 35.3582 72.5818 35.5949 72.4774 35.8315C72.2346 36.3822 72.038 36.9173 71.7465 37.3976C71.516 37.7769 71.2184 38.7218 71.7048 39.0263C71.8892 39.1411 72.5209 39.2508 72.8741 39.1724C73.0794 39.1272 73.3848 39.1516 73.6258 39.1516C74.5924 39.1516 75.867 39.3134 76.4447 38.901C76.8476 38.613 76.9685 38.118 77.1756 37.6273C77.3191 37.288 77.5123 36.9573 77.6558 36.625C77.8029 36.2857 77.8838 35.9385 78.0317 35.6018C78.1465 35.3399 78.3136 35.0711 78.4284 34.8084C78.5685 34.4873 78.6433 34.1689 78.7834 33.8478C78.8913 33.6016 79.0514 33.3406 79.1592 33.0961C79.3228 32.7246 79.4142 32.3409 79.5769 31.9686C79.67 31.7554 79.8179 31.5318 79.9109 31.3213C80.0719 30.955 80.1676 30.5843 80.3286 30.2146C80.4365 29.9675 80.5957 29.7108 80.7044 29.4629C80.8375 29.1601 80.9054 28.8521 81.0385 28.5441C81.1682 28.2439 81.3465 27.942 81.477 27.6462C81.6562 27.2373 81.8068 26.8032 81.9782 26.4143C82.448 25.345 82.8917 24.2809 83.3354 23.1986C83.4511 22.9159 83.6947 22.138 84.1498 22.259C84.5421 22.3634 84.6074 22.9228 84.7553 23.2821C85.1468 24.234 85.5749 25.2162 85.9873 26.1637C86.1169 26.4621 86.2265 26.7927 86.3631 27.1033C86.4788 27.3661 86.645 27.6332 86.7599 27.8968C86.9147 28.2526 87.0017 28.6102 87.1566 28.9617C87.2645 29.2079 87.4246 29.4637 87.5325 29.7134C87.6804 30.0536 87.7604 30.399 87.9083 30.7366C88.0223 30.9967 88.1902 31.2673 88.305 31.5301C88.4512 31.865 88.5356 32.2017 88.6809 32.5323C88.7905 32.782 88.948 33.0344 89.0568 33.2841C89.2116 33.6382 89.2986 33.9966 89.4535 34.349C89.577 34.63 89.7476 34.9197 89.8711 35.2051C90.0042 35.5113 90.073 35.8193 90.2052 36.1238C90.3923 36.5536 90.6246 36.9887 90.8107 37.4393C91.0491 38.017 91.2519 38.6739 91.7504 38.9845C92.3994 39.3891 94.0821 39.028 95.0496 39.1724C95.3784 39.2212 96.0153 39.182 96.2398 39.0889C96.9149 38.8096 96.5904 38.0179 96.3651 37.502C96.1763 37.0687 95.9057 36.6563 95.7178 36.2283ZM20.1291 27.8968C20.0308 27.4644 20.0299 27.0059 19.8994 26.6022C19.541 25.4946 19.0607 24.5524 18.4587 23.6998C18.282 23.4492 18.0123 23.27 17.8322 23.0316C17.6739 22.8219 17.4581 22.6018 17.2476 22.4469C16.3819 21.8109 15.4144 21.2532 14.2825 20.8808C13.6952 20.6877 13.0175 20.7147 12.3614 20.5676H12.0274C11.648 20.4841 10.7223 20.5354 10.3778 20.6094C10.1368 20.6616 9.93405 20.6146 9.70958 20.672C9.35722 20.7625 8.77342 20.8965 8.45673 20.672C8.0191 20.3614 8.20616 19.4105 8.20616 18.7092V14.3243C8.20616 13.6648 8.28881 12.8591 7.99735 12.4867C7.84423 12.291 7.49273 12.2327 7.14124 12.2362C7.0377 12.3023 6.58094 12.3336 6.43129 12.3823C6.01976 12.5155 5.55429 12.639 5.13668 12.7582C4.41455 12.9635 3.7307 13.007 3.38269 13.5725C3.2313 13.8179 3.23652 14.2312 3.23652 14.6166C3.24348 15.2221 3.25044 15.8277 3.2574 16.4332V36.2491C3.17562 36.6198 3.22521 37.435 3.34093 37.7108C3.63413 38.4094 4.32407 38.5878 5.05315 38.8592C6.15549 39.2699 7.55364 39.4857 9.06228 39.4857C9.76439 39.4857 10.483 39.5109 11.0668 39.3813C11.4183 39.303 11.7342 39.3412 12.0691 39.256C14.5992 38.6095 16.682 37.5176 18.041 35.7062C18.1106 35.6366 18.1802 35.567 18.2498 35.4974C18.4526 35.2242 18.6066 34.9354 18.7927 34.6413C18.9172 34.4438 19.0912 34.235 19.1895 34.0149C19.5358 33.2362 19.7933 32.4706 20.0247 31.5718C20.0882 31.3247 20.0491 31.1011 20.1082 30.841C20.1352 30.7209 20.143 30.5278 20.1709 30.4025V30.0266C20.2483 29.6751 20.2205 28.6877 20.15 28.3562C20.143 28.2031 20.1361 28.0499 20.1291 27.8968ZM15.3056 30.7575C15.2099 31.1707 15.1603 31.5875 15.0133 31.9477C14.4078 33.425 13.4586 34.5813 11.9856 35.1842C11.5958 35.3434 11.1295 35.3547 10.6701 35.4557C10.5483 35.4826 10.3699 35.4557 10.2734 35.4765C10.1472 35.5035 9.72698 35.4609 9.60518 35.4348C9.46597 35.4278 9.32677 35.4209 9.18756 35.4139C8.86217 35.3365 8.54199 35.2303 8.37321 34.9963C8.0539 34.5534 8.20616 33.3667 8.20616 32.6367V27.7089C8.20616 26.9737 8.06435 26.0193 8.31056 25.4746C8.51154 25.0292 8.95526 24.8726 9.47989 24.7438C9.6539 24.7012 10.0158 24.7403 10.1481 24.6603C10.8293 24.662 11.4618 24.6577 11.9856 24.8273C13.7039 25.3824 14.7419 26.6544 15.2221 28.4606C15.3744 29.0331 15.4588 30.0945 15.3056 30.7575ZM30.3607 35.1842C30.1354 35.0659 29.803 35.0798 29.4629 35.0798H29.1288C28.6415 34.9641 28.357 34.6117 28.21 34.1611C28.1152 33.8705 28.1856 33.5581 28.1265 33.2005V14.6792C28.1265 13.4734 28.3953 12.2257 27.1033 12.2362C26.9789 12.3162 26.6344 12.311 26.4769 12.3615C25.9514 12.5311 25.3841 12.6703 24.8482 12.8208C24.2339 12.994 23.6223 13.0314 23.3865 13.5725C23.1716 14.065 23.2612 15.1969 23.2612 15.8694V34.1402C23.2612 34.4525 23.223 34.8466 23.2821 35.1216V35.5392C23.31 35.7898 23.3378 36.0403 23.3656 36.2909C23.5544 37.0069 23.7763 37.6351 24.1591 38.1493C24.5124 38.6243 25.3015 39.0915 25.934 39.2977C26.2315 39.3943 26.5213 39.3682 26.8527 39.4439C27.0616 39.4918 27.8028 39.5422 28.0638 39.4857C28.384 39.4439 28.7042 39.4021 29.0244 39.3604C29.9266 39.1324 30.8975 38.9367 31.1124 38.024C31.1829 37.7256 31.0637 37.3854 31.008 37.1679C30.8218 36.4423 30.9523 35.4939 30.3607 35.1842ZM69.3035 28.0638C69.1695 27.4992 69.1069 26.938 68.9276 26.456C68.751 25.981 68.6457 25.5059 68.4474 25.057C68.3334 24.7986 68.1524 24.5576 68.0089 24.3262C67.8731 24.1078 67.7783 23.8851 67.633 23.6789C66.6995 22.3538 65.3239 21.375 63.6239 20.8182C63.0549 20.632 62.4067 20.6703 61.7655 20.5467H60.7006C60.4222 20.5746 60.1438 20.6024 59.8654 20.6303C59.2963 20.7721 58.7378 20.8365 58.2575 21.0479C55.6326 22.205 54.298 24.0417 53.3505 26.8736C53.2087 27.2982 53.1896 27.7698 53.0791 28.2309C53.0295 28.438 53.0608 28.665 53.0164 28.8573C53.0095 29.1218 53.0025 29.3863 52.9956 29.6508C52.9529 29.8953 52.9512 30.5922 53.0164 30.8828C53.0852 31.189 53.0086 31.5057 53.0791 31.8015C53.2061 32.334 53.2644 32.8682 53.434 33.3258C53.6594 33.934 53.8029 34.5987 54.1231 35.1216C55.0193 36.5841 55.8919 37.549 57.3597 38.4416C57.5658 38.5669 57.799 38.613 58.0278 38.7131C58.3672 38.861 58.7239 39.028 59.0928 39.1516C59.2137 39.1916 59.2981 39.1768 59.4268 39.2142C59.8323 39.3308 60.3195 39.3404 60.7632 39.4439C60.9372 39.4509 61.1112 39.4578 61.2852 39.4648C61.5019 39.5152 61.9195 39.53 62.1205 39.4857H62.6843C62.8452 39.4483 63.0445 39.4865 63.2272 39.4439C63.7353 39.3247 64.2651 39.3534 64.7515 39.2142C65.8146 38.9088 66.857 38.5521 67.6957 38.024C68.0593 37.7952 68.3517 37.649 68.4683 37.1679C68.5692 36.752 68.1437 36.0229 68.0298 35.748C67.8444 35.2999 67.7853 34.804 67.3407 34.6204C67.0962 34.5195 66.6916 34.5978 66.4846 34.6831C66.1783 34.8292 65.8721 34.9754 65.5658 35.1216C65.3039 35.2295 64.9864 35.2756 64.7097 35.3513C64.3965 35.393 64.0833 35.4348 63.7701 35.4765C63.6796 35.4809 63.4621 35.5261 63.4151 35.4974C62.3832 35.5401 61.4175 35.4957 60.6588 35.1633C60.4126 35.0554 60.1873 34.8823 59.9698 34.7457C59.4582 34.4229 59.051 34.0949 58.7169 33.5973C58.4907 33.2597 58.2828 32.9099 58.1114 32.5115C58.047 32.3609 57.9434 32.1208 58.007 31.9059C58.0531 31.7502 58.1549 31.5892 58.2784 31.5092C58.649 31.2682 59.9932 31.3839 60.6588 31.3839H66.8813C67.6348 31.3839 68.8102 31.5405 69.1364 31.1124C69.2835 30.9202 69.3426 30.6827 69.4079 30.4025V30.1102C69.447 29.8892 69.4305 29.3532 69.3661 29.0661C69.3453 28.732 69.3244 28.3979 69.3035 28.0638ZM64.0833 27.6253C63.7622 27.8594 63.1558 27.8133 62.6007 27.8133H59.3642C58.7343 27.8133 58.1174 27.8716 57.9234 27.4374C57.7259 26.9963 58.0383 26.5161 58.1949 26.2263C58.6038 25.4729 59.078 24.8656 59.8862 24.5141C60.1159 24.4375 60.3456 24.361 60.5753 24.2844C60.7006 24.2487 60.8694 24.2827 60.972 24.2218C62.5207 24.2157 63.4595 25.084 63.9371 26.1637C64.1015 26.5361 64.5566 27.2799 64.0833 27.6253ZM107.996 20.5467C107.897 20.6094 107.706 20.5589 107.578 20.5885C107.239 20.6659 106.893 20.692 106.576 20.7973C105.871 21.0305 105.211 21.4577 104.655 21.8622C104.482 21.9875 104.124 22.3599 103.757 22.259C103.275 22.1259 103.297 21.4559 102.963 21.1732C102.495 20.7773 101.368 20.9017 100.52 20.9017C99.9887 20.9017 99.5302 20.9122 99.3092 21.2149C99.0569 21.5603 99.0587 22.0911 99.0587 22.6975V37.3767C99.0587 38.1728 99.0683 38.854 99.6225 39.0889C100.009 39.2525 100.713 39.1724 101.23 39.1724C102.008 39.1724 103.304 39.2916 103.632 38.8592C104.057 38.2989 103.882 36.6911 103.882 35.7062V27.5627C103.882 27.1651 103.867 26.7745 103.987 26.4978C104.304 25.7626 105.569 25.1675 106.409 24.9317C106.623 24.8717 107.195 24.8073 107.474 24.8691C107.634 24.8969 107.794 24.9248 107.954 24.9526C108.349 25.0805 108.906 25.3633 109.332 25.057C109.834 24.6959 110.046 23.832 110.313 23.2195C110.455 22.8941 110.689 22.5974 110.815 22.259C110.931 21.9423 110.881 21.4664 110.731 21.2358C110.357 20.659 108.998 20.5241 107.996 20.5467ZM121.714 20.5467C121.609 20.6137 121.412 20.5572 121.276 20.5885C120.921 20.6694 120.54 20.6973 120.211 20.8182C119.55 21.0618 118.907 21.449 118.373 21.8414C118.199 21.9693 117.842 22.3816 117.476 22.2799C117.002 22.1485 117 21.4133 116.64 21.1523C116.208 20.8373 115.442 20.9226 114.74 20.9226C114.034 20.9226 113.267 20.8225 112.944 21.2567C112.692 21.596 112.694 22.1154 112.694 22.7184V37.3349C112.694 37.7795 112.665 38.2502 112.798 38.5669C112.893 38.7931 113.094 38.995 113.32 39.0889C113.721 39.2551 114.39 39.1516 114.886 39.1516C115.789 39.1516 116.929 39.3308 117.329 38.7757C117.584 38.4225 117.543 37.8117 117.538 37.2514V27.6045C117.538 27.2103 117.525 26.8319 117.643 26.5604C117.984 25.7704 119.092 25.278 119.96 24.9944C120.132 24.9387 120.682 24.8021 120.921 24.8482C121.137 24.876 121.352 24.9039 121.568 24.9317C121.975 25.0448 122.598 25.3772 123.03 25.0779C123.293 24.8952 123.42 24.5367 123.573 24.2427C123.779 23.8477 123.926 23.4248 124.116 22.9898C124.227 22.7358 124.405 22.4965 124.512 22.2381C124.619 21.9823 124.597 21.5055 124.471 21.2985C124.083 20.6633 122.782 20.5215 121.714 20.5467ZM142.324 26.3307C141.025 22.828 138.278 20.458 133.387 20.5467C133.272 20.6181 132.674 20.5668 132.489 20.6094C131.916 20.7416 131.302 20.7399 130.798 20.9435C130.483 21.0705 130.162 21.2289 129.858 21.3611C129.65 21.4516 129.439 21.4977 129.252 21.6117C127.591 22.6235 126.231 23.9843 125.452 25.8714C125.155 26.5926 124.983 27.3382 124.784 28.1474C124.707 28.4571 124.774 28.759 124.7 29.087C124.64 29.3532 124.659 29.6891 124.659 30.0058C124.659 30.6322 124.644 31.2577 124.763 31.7806C124.784 31.9686 124.805 32.1565 124.826 32.3444C125.034 33.117 125.232 33.8626 125.536 34.5578C125.662 34.8466 125.857 35.1155 126.016 35.3721C126.152 35.5905 126.246 35.8132 126.392 36.0194C127.07 36.9834 128.002 37.756 129.023 38.379C129.312 38.5556 129.638 38.6348 129.962 38.7757C130.276 38.9123 130.615 39.0585 130.965 39.1724C131.285 39.2351 131.605 39.2977 131.925 39.3604C132.226 39.4343 132.552 39.3987 132.844 39.4648H133.157C133.329 39.5039 134.105 39.5309 134.306 39.4857C134.52 39.4369 134.767 39.4761 134.995 39.423C135.494 39.3073 136.02 39.3038 136.477 39.1516C139.373 38.1884 141.108 36.4536 142.24 33.7226C142.443 33.2327 142.472 32.7072 142.616 32.1356C142.98 30.694 142.886 28.652 142.533 27.2704C142.446 26.9345 142.437 26.6361 142.324 26.3307ZM137.834 30.7575C137.827 30.9384 137.82 31.1194 137.814 31.3004C137.722 31.718 137.708 32.1469 137.584 32.5323C137.222 33.653 136.459 34.8623 135.433 35.3095C135.03 35.4852 134.585 35.5374 134.097 35.6436C133.917 35.6827 133.596 35.6549 133.449 35.6227C133.338 35.6157 133.227 35.6088 133.115 35.6018C132.588 35.4739 132.14 35.3339 131.758 35.0798C130.695 34.3725 130.227 33.4772 129.795 32.1356C129.682 31.7824 129.696 31.4474 129.607 31.0498C129.503 30.5817 129.483 29.589 129.586 29.1079C129.68 28.6711 129.651 28.2848 129.774 27.8968C130.226 26.4804 130.717 25.5277 131.883 24.8273C132.147 24.669 132.519 24.5959 132.844 24.5141C132.989 24.4776 133.205 24.5237 133.324 24.4515C134.051 24.4515 134.665 24.4906 135.183 24.702C136.377 25.1893 137.169 26.2977 137.584 27.5627C137.684 27.8681 137.669 28.1552 137.751 28.5023C137.858 28.953 137.855 29.5098 137.855 30.0684C137.855 30.2911 137.874 30.5704 137.834 30.7575ZM49.6337 36.792V35.8942C49.5789 35.6375 49.6129 35.2686 49.6129 34.9754V24.6394C49.6198 23.9642 49.6268 23.2891 49.6337 22.6139C49.6337 22.0797 49.6268 21.5873 49.4041 21.2776C48.9995 20.7155 47.7501 20.927 46.8357 20.9226C46.5495 20.9209 46.164 20.8347 45.8543 20.9017C45.4637 20.9861 45.1235 21.0209 44.9355 21.2985C44.7163 21.6221 44.7267 22.1563 44.7267 22.6975V32.6994C44.8129 33.0996 44.7702 33.7748 44.6432 34.0775C44.4971 34.4273 44.2108 34.6091 43.9124 34.8084C43.7436 34.9215 43.56 35.0763 43.3695 35.1633C42.5403 35.5435 41.0978 35.7228 40.133 35.3304C39.7936 35.192 39.5248 34.9771 39.3186 34.704C39.1185 34.4386 38.874 34.2011 38.7339 33.8687C38.3563 32.9735 38.4625 31.5457 38.4625 30.2981V22.5513C38.4625 22.0858 38.4738 21.6299 38.2954 21.3402C38.0588 20.9565 37.1966 20.779 36.5206 20.9226C35.8802 20.9156 35.2399 20.9087 34.5995 20.9017C34.5299 20.9444 34.4168 20.9174 34.3281 20.9435C34.1201 21.0053 33.9105 21.1514 33.8061 21.3193C33.4789 21.8448 33.6181 23.2734 33.6181 24.0965V30.6739C33.6251 31.2656 33.6321 31.8572 33.639 32.4488C33.639 32.8551 33.6016 33.3206 33.6808 33.6808C33.7965 34.2098 33.7956 34.7631 33.9522 35.2469C34.3742 36.5502 35.1468 37.7064 36.1656 38.4207C36.4666 38.6313 36.8112 38.7688 37.147 38.9428C37.5664 39.1603 38.0553 39.2725 38.5878 39.4021C38.827 39.4604 39.0445 39.41 39.2977 39.4648C39.5057 39.51 40.1243 39.537 40.3626 39.4857C40.8403 39.383 41.3327 39.4021 41.7825 39.2769C42.3385 39.1229 42.7927 38.8984 43.2651 38.6922C43.4765 38.6 43.6801 38.5391 43.8706 38.4207C44.1908 38.2224 44.444 37.8952 44.852 37.7943C45.073 37.7395 45.2418 37.8735 45.3323 37.9614C45.602 38.2224 45.7403 38.6556 46.0422 38.8801C46.245 39.0306 46.4781 39.1081 46.7731 39.1724C47.1489 39.1655 47.5248 39.1585 47.9006 39.1516C48.4427 39.2682 49.2292 39.1672 49.5293 38.9428C49.7756 38.7583 49.8599 38.1406 49.759 37.6899C49.6981 37.4176 49.6964 37.0835 49.6337 36.792ZM170.826 21.0479C170.596 20.9043 170.06 20.8373 169.657 20.9017C168.657 21.0618 167.638 20.6929 166.963 21.1941C166.355 21.6456 166.235 23.0298 165.94 23.825C165.262 25.6504 164.821 27.6654 164.144 29.4837C163.835 30.3138 163.787 31.504 163.267 32.1147C163.221 32.1687 163.129 32.1896 163.079 32.24H162.891C162.494 31.8267 162.543 31.4796 162.348 30.8828C162.217 30.4773 162.062 30.0667 161.931 29.6717C161.854 29.442 161.84 29.2375 161.764 29.0035C161.252 27.4305 160.751 25.8096 160.24 24.2427C160.198 24.0617 160.156 23.8807 160.114 23.6998C159.962 23.2412 159.8 22.7697 159.634 22.3216C159.495 21.9475 159.431 21.5864 159.216 21.2985C158.838 20.7912 157.851 20.9287 157.024 20.9226C156.611 20.9191 156.128 20.8739 155.834 21.0479C155.186 21.4316 154.913 22.8784 154.643 23.6998C154.222 24.9796 153.788 26.3473 153.328 27.6045C153.116 28.1848 153.008 28.7973 152.785 29.3376C152.571 29.8552 152.464 30.4417 152.284 30.9872C152.14 31.4257 152.096 31.8381 151.574 31.8433C151.504 31.7772 151.401 31.7337 151.344 31.6553C150.961 31.1255 150.96 30.2294 150.697 29.5881C150.429 28.9321 150.286 28.2352 150.05 27.5209C149.904 27.1242 149.757 26.7275 149.611 26.3307C149.465 25.8922 149.402 25.4537 149.256 25.0152C149.117 24.595 148.938 24.1644 148.797 23.7415C148.493 22.8271 148.347 21.4994 147.607 21.0479C147.355 20.8948 146.96 20.9052 146.563 20.9017C146.458 20.9661 145.959 20.9226 145.79 20.9226C144.935 20.9226 143.605 20.7295 143.368 21.3611C143.185 21.8466 143.501 22.359 143.639 22.6766C143.816 23.082 143.884 23.5284 144.057 23.9503C144.259 24.4428 144.425 24.9265 144.621 25.4537C145.36 27.4487 146.011 29.5377 146.813 31.4883C146.925 31.8502 147.036 32.2122 147.147 32.5741C147.577 33.6216 147.949 34.8049 148.379 35.8524C148.47 36.1586 148.56 36.4649 148.651 36.7712C148.791 37.1479 148.96 37.5316 149.11 37.8987C149.26 38.2624 149.325 38.74 149.611 38.9636C149.825 39.1307 150.084 39.1864 150.405 39.256H151.115C151.752 39.256 152.571 39.3386 152.973 39.0889C153.267 38.9053 153.372 38.5512 153.516 38.2119C153.666 37.857 153.827 37.4663 153.954 37.0844C154.021 36.8816 154.033 36.7042 154.101 36.4997C154.281 35.9551 154.507 35.427 154.685 34.8919C154.782 34.6013 154.817 34.3281 154.915 34.0358C155.058 33.6068 155.23 33.1709 155.395 32.762C155.526 32.4401 155.555 32.1173 155.667 31.7806C155.782 31.4318 155.929 31.0637 156.063 30.7366C156.324 30.1032 156.427 29.3498 156.69 28.732C156.816 28.4353 156.906 28.1404 157.316 28.1265C157.379 28.1857 157.474 28.2231 157.525 28.2935C157.669 28.4919 157.69 28.7407 157.776 29.0035C157.917 29.4402 158.022 29.9014 158.193 30.319C158.434 30.9054 158.566 31.584 158.799 32.1982C158.91 32.4932 159.051 32.809 159.154 33.117C159.269 33.4615 159.311 33.7965 159.425 34.1402C159.553 34.5265 159.712 34.9206 159.864 35.2886C160.005 35.6323 160.084 36.0325 160.198 36.3744C160.394 36.9617 160.574 37.5011 160.782 38.0658C160.926 38.4538 161.009 38.8401 161.325 39.0472C161.739 39.3169 162.505 39.256 163.184 39.256C163.536 39.256 163.983 39.3056 164.27 39.2142C164.803 39.0437 164.974 38.6174 165.188 38.1284C165.475 37.4759 165.668 36.6955 165.961 36.0194C166.211 35.4417 166.376 34.7718 166.629 34.1611C167.588 31.8485 168.328 29.3541 169.281 27.0407C169.391 26.7736 169.429 26.5013 169.532 26.2263C169.653 25.8975 169.796 25.5573 169.928 25.2449C170.125 24.7812 170.214 24.2783 170.409 23.8042C170.609 23.3178 170.844 22.8306 171.014 22.3216C171.166 21.8657 171.202 21.2828 170.826 21.0479Z"/>
</svg>
