<svg width="18" height="21" viewBox="0 0 18 21" fill="black" xmlns="http://www.w3.org/2000/svg">
    <path d="M5 12.5C4.71667 12.5 4.479 12.404 4.287 12.212C4.095 12.02 3.99934 11.7827 4 11.5C4 11.2167 4.096 10.979 4.288 10.787C4.48 10.595 4.71734 10.4993 5 10.5C5.28334 10.5 5.521 10.596 5.713 10.788C5.905 10.98 6.00067 11.2173 6 11.5C6 11.7833 5.904 12.021 5.712 12.213C5.52 12.405 5.28267 12.5007 5 12.5ZM9 12.5C8.71667 12.5 8.479 12.404 8.287 12.212C8.095 12.02 7.99934 11.7827 8 11.5C8 11.2167 8.096 10.979 8.288 10.787C8.48 10.595 8.71734 10.4993 9 10.5C9.28334 10.5 9.521 10.596 9.713 10.788C9.905 10.98 10.0007 11.2173 10 11.5C10 11.7833 9.904 12.021 9.712 12.213C9.52 12.405 9.28267 12.5007 9 12.5ZM13 12.5C12.7167 12.5 12.479 12.404 12.287 12.212C12.095 12.02 11.9993 11.7827 12 11.5C12 11.2167 12.096 10.979 12.288 10.787C12.48 10.595 12.7173 10.4993 13 10.5C13.2833 10.5 13.521 10.596 13.713 10.788C13.905 10.98 14.0007 11.2173 14 11.5C14 11.7833 13.904 12.021 13.712 12.213C13.52 12.405 13.2827 12.5007 13 12.5ZM2 20.5C1.45 20.5 0.979002 20.304 0.587002 19.912C0.195002 19.52 -0.000664969 19.0493 1.69779e-06 18.5V4.5C1.69779e-06 3.95 0.196002 3.479 0.588002 3.087C0.980002 2.695 1.45067 2.49933 2 2.5H3V0.5H5V2.5H13V0.5H15V2.5H16C16.55 2.5 17.021 2.696 17.413 3.088C17.805 3.48 18.0007 3.95067 18 4.5V18.5C18 19.05 17.804 19.521 17.412 19.913C17.02 20.305 16.5493 20.5007 16 20.5H2ZM2 18.5H16V8.5H2V18.5Z" />
</svg>