<svg viewBox="0 0 14 25" fill="#5C5C5C" xmlns="http://www.w3.org/2000/svg">
    <path d="M13.3782 24.0356C13.5753 23.8367 13.7317 23.6005 13.8384 23.3405C13.9451 23.0805 14 22.8017 14 22.5202C14 22.2387 13.9451 21.96 13.8384 21.7C13.7317 21.4399 13.5753 21.2037 13.3782 21.0049L5.12905 12.6651L13.3782 4.32536C13.5751 4.12636 13.7312 3.89011 13.8377 3.63011C13.9443 3.37011 13.9991 3.09144 13.9991 2.81001C13.9991 2.52859 13.9443 2.24992 13.8377 1.98991C13.7312 1.72991 13.5751 1.49366 13.3782 1.29467C13.1814 1.09567 12.9477 0.937818 12.6905 0.830122C12.4334 0.722425 12.1577 0.666994 11.8794 0.666994C11.601 0.666994 11.3253 0.722423 11.0682 0.830122C10.811 0.937818 10.5773 1.09567 10.3805 1.29467L0.62176 11.1605C0.424665 11.3594 0.268296 11.5956 0.161607 11.8556C0.0549165 12.1156 -8.34441e-07 12.3944 -8.59051e-07 12.6759C-8.83661e-07 12.9574 0.0549164 13.2361 0.161607 13.4961C0.268296 13.7562 0.424664 13.9924 0.621759 14.1912L10.3805 24.0571C11.1884 24.8738 12.5491 24.8738 13.3782 24.0356Z" />
</svg>
