<svg viewBox="0 0 14 25" fill="#5C5C5C" xmlns="http://www.w3.org/2000/svg">
    <path d="M0.62176 1.29841C0.424665 1.49726 0.268297 1.73346 0.161607 1.99348C0.0549171 2.25351 0 2.53225 0 2.81376C0 3.09526 0.0549171 3.37401 0.161607 3.63403C0.268297 3.89405 0.424665 4.13025 0.62176 4.3291L8.87095 12.6689L0.62176 21.0086C0.424923 21.2076 0.268785 21.4439 0.162258 21.7039C0.0557305 21.9639 0.000900251 22.2425 0.000900249 22.524C0.000900247 22.8054 0.0557305 23.0841 0.162258 23.3441C0.268785 23.6041 0.424923 23.8403 0.62176 24.0393C0.818596 24.2383 1.05228 24.3962 1.30945 24.5039C1.56663 24.6116 1.84228 24.667 2.12065 24.667C2.39901 24.667 2.67466 24.6116 2.93184 24.5039C3.18902 24.3962 3.4227 24.2383 3.61953 24.0393L13.3782 14.1735C13.5753 13.9746 13.7317 13.7384 13.8384 13.4784C13.9451 13.2184 14 12.9396 14 12.6581C14 12.3766 13.9451 12.0979 13.8384 11.8378C13.7317 11.5778 13.5753 11.3416 13.3782 11.1428L3.61953 1.27692C2.81162 0.460136 1.45093 0.460137 0.62176 1.29841Z" />
</svg>
