<svg width="7" height="13" viewBox="0 0 7 13" fill="none" xmlns="http://www.w3.org/2000/svg">
    <path d="M0.499964 1.17755C0.40726 1.27007 0.333713 1.37995 0.283531 1.50093C0.23335 1.6219 0.20752 1.75158 0.20752 1.88255C0.20752 2.01352 0.23335 2.1432 0.283531 2.26418C0.333713 2.38515 0.40726 2.49504 0.499964 2.58755L4.37996 6.46755L0.499964 10.3476C0.407382 10.4401 0.333942 10.55 0.283837 10.671C0.233732 10.792 0.207943 10.9216 0.207943 11.0526C0.207943 11.1835 0.233732 11.3131 0.283837 11.4341C0.333942 11.5551 0.407382 11.665 0.499964 11.7576C0.592546 11.8501 0.702456 11.9236 0.823421 11.9737C0.944385 12.0238 1.07403 12.0496 1.20496 12.0496C1.33589 12.0496 1.46554 12.0238 1.58651 11.9737C1.70747 11.9236 1.81738 11.8501 1.90996 11.7576L6.49996 7.16755C6.59267 7.07504 6.66621 6.96515 6.7164 6.84418C6.76658 6.7232 6.79241 6.59352 6.79241 6.46255C6.79241 6.33158 6.76658 6.2019 6.7164 6.08093C6.66621 5.95995 6.59267 5.85006 6.49996 5.75755L1.90996 1.16755C1.52996 0.787551 0.889964 0.787551 0.499964 1.17755Z" fill="#5C5C5C"/>
</svg>
