<svg xmlns="http://www.w3.org/2000/svg" viewBox="0 0 21 22" fill="black">
    <path d="M10.5 21.5C9.0475 21.5 7.6825 21.2242 6.405 20.6726C5.1275 20.121 4.01625 19.3731 3.07125 18.4287C2.12625 17.4837 1.3783 16.3725 0.8274 15.095C0.2765 13.8175 0.0007 12.4525 0 11C0 9.5475 0.2758 8.1825 0.8274 6.905C1.379 5.6275 2.12695 4.51625 3.07125 3.57125C4.01625 2.62625 5.1275 1.8783 6.405 1.3274C7.6825 0.7765 9.0475 0.5007 10.5 0.5C11.9525 0.5 13.3175 0.7758 14.595 1.3274C15.8725 1.879 16.9837 2.62695 17.9287 3.57125C18.8738 4.51625 19.622 5.6275 20.1736 6.905C20.7252 8.1825 21.0007 9.5475 21 11V12.5225C21 13.555 20.6458 14.4345 19.9374 15.1611C19.229 15.8877 18.3582 16.2507 17.325 16.25C16.7125 16.25 16.135 16.1187 15.5925 15.8562C15.05 15.5937 14.595 15.2175 14.2275 14.7275C13.72 15.235 13.1467 15.6158 12.5076 15.8699C11.8685 16.124 11.1993 16.2507 10.5 16.25C9.0475 16.25 7.8092 15.7379 6.7851 14.7138C5.761 13.6897 5.2493 12.4518 5.25 11C5.25 9.5475 5.76205 8.3092 6.78615 7.2851C7.81025 6.261 9.0482 5.7493 10.5 5.75C11.9525 5.75 13.1908 6.26205 14.2149 7.28615C15.239 8.31025 15.7507 9.5482 15.75 11V12.5225C15.75 12.9775 15.8987 13.3625 16.1962 13.6775C16.4937 13.9925 16.87 14.15 17.325 14.15C17.78 14.15 18.1562 13.9925 18.4538 13.6775C18.7512 13.3625 18.9 12.9775 18.9 12.5225V11C18.9 8.655 18.0862 6.66875 16.4587 5.04125C14.8312 3.41375 12.845 2.6 10.5 2.6C8.155 2.6 6.16875 3.41375 4.54125 5.04125C2.91375 6.66875 2.1 8.655 2.1 11C2.1 13.345 2.91375 15.3312 4.54125 16.9587C6.16875 18.5862 8.155 19.4 10.5 19.4H15.75V21.5H10.5ZM10.5 14.15C11.375 14.15 12.1187 13.8437 12.7312 13.2312C13.3437 12.6187 13.65 11.875 13.65 11C13.65 10.125 13.3437 9.38125 12.7312 8.76875C12.1187 8.15625 11.375 7.85 10.5 7.85C9.625 7.85 8.88125 8.15625 8.26875 8.76875C7.65625 9.38125 7.35 10.125 7.35 11C7.35 11.875 7.65625 12.6187 8.26875 13.2312C8.88125 13.8437 9.625 14.15 10.5 14.15Z"/>
</svg>