<svg xmlns="http://www.w3.org/2000/svg" width="25" height="25" viewBox="0 0 25 25" fill="black">
    <path d="M6.5 22.9053C5.66667 22.9053 4.95833 22.6136 4.375 22.0303C3.79167 21.4469 3.5 20.7386 3.5 19.9053V16.9053H6.5V2.90527H21.5V19.9053C21.5 20.7386 21.2083 21.4469 20.625 22.0303C20.0417 22.6136 19.3333 22.9053 18.5 22.9053H6.5ZM18.5 20.9053C18.7833 20.9053 19.021 20.8093 19.213 20.6173C19.405 20.4253 19.5007 20.1879 19.5 19.9053V4.90527H8.5V16.9053H17.5V19.9053C17.5 20.1886 17.596 20.4263 17.788 20.6183C17.98 20.8103 18.2173 20.9059 18.5 20.9053ZM9.5 9.90527V7.90527H18.5V9.90527H9.5ZM9.5 12.9053V10.9053H18.5V12.9053H9.5Z" />
</svg>