<svg viewBox="0 0 28 29" fill="black" xmlns="http://www.w3.org/2000/svg">
    <path d="M27.4695 10.9344C27.6828 10.7648 28 10.9234 28 11.1914V22.375C28 23.8242 26.8242 25 25.375 25H2.625C1.17578 25 0 23.8242 0 22.375V11.1969C0 10.9234 0.311719 10.7703 0.530469 10.9398C1.75547 11.8914 3.37969 13.1 8.95781 17.1523C10.1117 17.9945 12.0586 19.7664 14 19.7555C15.9523 19.7719 17.9375 17.9617 19.0477 17.1523C24.6258 13.1 26.2445 11.8859 27.4695 10.9344ZM14 18C15.2688 18.0219 17.0953 16.4031 18.0141 15.7359C25.2711 10.4695 25.8234 10.0102 27.4969 8.69766C27.8141 8.45156 28 8.06875 28 7.66406V6.625C28 5.17578 26.8242 4 25.375 4H2.625C1.17578 4 0 5.17578 0 6.625V7.66406C0 8.06875 0.185937 8.44609 0.503125 8.69766C2.17656 10.0047 2.72891 10.4695 9.98594 15.7359C10.9047 16.4031 12.7312 18.0219 14 18Z"/>
</svg>
