<svg viewBox="0 0 25 25" fill="black" xmlns="http://www.w3.org/2000/svg">
    <path d="M5.59598 24.9995H0.412946V8.64242H5.59598V24.9995ZM3.00167 6.41117C1.34431 6.41117 0 5.06586 0 3.44164C1.18627e-08 2.66147 0.316247 1.91325 0.87917 1.36159C1.44209 0.809922 2.20558 0.5 3.00167 0.5C3.79777 0.5 4.56125 0.809922 5.12418 1.36159C5.6871 1.91325 6.00335 2.66147 6.00335 3.44164C6.00335 5.06586 4.65848 6.41117 3.00167 6.41117ZM24.9944 24.9995H19.8225V17.037C19.8225 15.1393 19.7835 12.7057 17.1278 12.7057C14.433 12.7057 14.0201 14.7674 14.0201 16.9002V24.9995H8.84263V8.64242H13.8136V10.8737H13.8862C14.5781 9.58852 16.2684 8.23227 18.7902 8.23227C24.0357 8.23227 25 11.6174 25 16.0143V24.9995H24.9944Z"/>
</svg>
