<svg xmlns="http://www.w3.org/2000/svg" viewBox="0 0 21 30" fill="black">
    <path d="M10.5 24.9C10.25 24.9 10.006 24.8625 9.768 24.7875C9.53 24.7125 9.3115 24.6 9.1125 24.45C7.0875 22.875 5.0625 20.8935 3.0375 18.5055C1.0125 16.1175 5.1903e-06 13.524 5.1903e-06 10.725C5.1903e-06 8.95 0.319005 7.3935 0.957005 6.0555C1.595 4.7175 2.413 3.599 3.411 2.7C4.411 1.8 5.536 1.125 6.786 0.675C8.036 0.225 9.274 0 10.5 0C11.725 0 12.9625 0.225 14.2125 0.675C15.4625 1.125 16.5875 1.8 17.5875 2.7C18.5875 3.6 19.4065 4.719 20.0445 6.057C20.6825 7.395 21.001 8.951 21 10.725C21 13.525 19.9875 16.119 17.9625 18.507C15.9375 20.895 13.9125 22.876 11.8875 24.45C11.6875 24.6 11.4685 24.7125 11.2305 24.7875C10.9925 24.8625 10.749 24.9 10.5 24.9ZM10.5 13.5C11.325 13.5 12.0315 13.206 12.6195 12.618C13.2075 12.03 13.501 11.324 13.5 10.5C13.5 9.675 13.206 8.9685 12.618 8.3805C12.03 7.7925 11.324 7.499 10.5 7.5C9.675 7.5 8.9685 7.794 8.3805 8.382C7.7925 8.97 7.499 9.676 7.5 10.5C7.5 11.325 7.794 12.0315 8.382 12.6195C8.97 13.2075 9.676 13.501 10.5 13.5ZM1.5 30C1.075 30 0.718505 29.856 0.430505 29.568C0.142505 29.28 -0.000994809 28.924 5.1903e-06 28.5C5.1903e-06 28.075 0.144005 27.7185 0.432005 27.4305C0.720005 27.1425 1.076 26.999 1.5 27H19.5C19.925 27 20.2815 27.144 20.5695 27.432C20.8575 27.72 21.001 28.076 21 28.5C21 28.925 20.856 29.2815 20.568 29.5695C20.28 29.8575 19.924 30.001 19.5 30H1.5Z"/>
</svg>