<svg xmlns="http://www.w3.org/2000/svg" width="25" height="25" viewBox="0 0 25 25" fill="black">
    <path d="M12.5 19.5053C12.3333 19.5053 12.1707 19.4803 12.012 19.4303C11.8533 19.3803 11.7077 19.3053 11.575 19.2053C10.225 18.1553 8.875 16.8343 7.525 15.2423C6.175 13.6503 5.5 11.9213 5.5 10.0553C5.5 8.87194 5.71267 7.83427 6.138 6.94227C6.56334 6.05027 7.10867 5.30461 7.774 4.70527C8.44067 4.10527 9.19067 3.65527 10.024 3.35527C10.8573 3.05527 11.6827 2.90527 12.5 2.90527C13.3167 2.90527 14.1417 3.05527 14.975 3.35527C15.8083 3.65527 16.5583 4.10527 17.225 4.70527C17.8917 5.30527 18.4377 6.05127 18.863 6.94327C19.2883 7.83527 19.5007 8.87261 19.5 10.0553C19.5 11.9219 18.825 13.6513 17.475 15.2433C16.125 16.8353 14.775 18.1559 13.425 19.2053C13.2917 19.3053 13.1457 19.3803 12.987 19.4303C12.8283 19.4803 12.666 19.5053 12.5 19.5053ZM12.5 11.9053C13.05 11.9053 13.521 11.7093 13.913 11.3173C14.305 10.9253 14.5007 10.4546 14.5 9.90527C14.5 9.35527 14.304 8.88427 13.912 8.49227C13.52 8.10027 13.0493 7.90461 12.5 7.90527C11.95 7.90527 11.479 8.10127 11.087 8.49327C10.695 8.88527 10.4993 9.35594 10.5 9.90527C10.5 10.4553 10.696 10.9263 11.088 11.3183C11.48 11.7103 11.9507 11.9059 12.5 11.9053ZM6.5 22.9053C6.21667 22.9053 5.979 22.8093 5.787 22.6173C5.595 22.4253 5.49934 22.1879 5.5 21.9053C5.5 21.6219 5.596 21.3843 5.788 21.1923C5.98 21.0003 6.21734 20.9046 6.5 20.9053H18.5C18.7833 20.9053 19.021 21.0013 19.213 21.1933C19.405 21.3853 19.5007 21.6226 19.5 21.9053C19.5 22.1886 19.404 22.4263 19.212 22.6183C19.02 22.8103 18.7827 22.9059 18.5 22.9053H6.5Z" />
</svg>