<svg viewBox="0 0 26 26" fill="black" xmlns="http://www.w3.org/2000/svg">
    <path d="M21.7556 4.31016C19.4174 2.01328 16.3036 0.75 12.9944 0.75C6.16406 0.75 0.606027 6.19688 0.606027 12.8906C0.606027 15.0289 1.17522 17.118 2.25781 18.9609L0.5 25.25L7.06808 23.5602C8.87612 24.5281 10.9129 25.0367 12.9888 25.0367H12.9944C19.8192 25.0367 25.5 19.5898 25.5 12.8961C25.5 9.65313 24.0938 6.60703 21.7556 4.31016ZM12.9944 22.9914C11.1417 22.9914 9.32812 22.5047 7.74888 21.5859L7.375 21.3672L3.47991 22.368L4.51786 18.6438L4.27232 18.2609C3.23996 16.6531 2.69866 14.7992 2.69866 12.8906C2.69866 7.32891 7.3192 2.80078 13 2.80078C15.7511 2.80078 18.3348 3.85078 20.2768 5.75938C22.2188 7.66797 23.4129 10.2 23.4074 12.8961C23.4074 18.4633 18.6696 22.9914 12.9944 22.9914ZM18.6417 15.4336C18.3348 15.2805 16.8114 14.5477 16.5268 14.4492C16.2422 14.3453 16.0357 14.2961 15.8292 14.6023C15.6228 14.9086 15.0312 15.5867 14.8471 15.7945C14.6685 15.9969 14.4844 16.0242 14.1775 15.8711C12.3583 14.9797 11.1641 14.2797 9.96429 12.2617C9.64621 11.7258 10.2824 11.7641 10.8739 10.6047C10.9743 10.4023 10.9241 10.2273 10.846 10.0742C10.7679 9.92109 10.1484 8.42813 9.89174 7.82109C9.64062 7.23047 9.38393 7.3125 9.1942 7.30156C9.01562 7.29063 8.80915 7.29063 8.60268 7.29063C8.3962 7.29063 8.06138 7.36719 7.77679 7.66797C7.49219 7.97422 6.6942 8.70703 6.6942 10.2C6.6942 11.693 7.80469 13.1367 7.95536 13.3391C8.11161 13.5414 10.1373 16.6039 13.2455 17.9219C15.2098 18.7531 15.9799 18.8242 16.9621 18.682C17.5592 18.5945 18.7924 17.9492 19.0491 17.2383C19.3058 16.5273 19.3058 15.9203 19.2277 15.7945C19.1551 15.6578 18.9487 15.5813 18.6417 15.4336Z"/>
</svg>
