<svg viewBox="0 0 28 20" fill="black" xmlns="http://www.w3.org/2000/svg">
    <path d="M26.72 3.30109C26.4147 2.10011 25.5151 1.15426 24.3729 0.833273C22.3025 0.25 14.0007 0.25 14.0007 0.25C14.0007 0.25 5.69885 0.25 3.62845 0.833273C2.48624 1.15431 1.58664 2.10011 1.28131 3.30109C0.726562 5.47793 0.726562 10.0197 0.726562 10.0197C0.726562 10.0197 0.726562 14.5615 1.28131 16.7383C1.58664 17.9393 2.48624 18.8457 3.62845 19.1667C5.69885 19.75 14.0007 19.75 14.0007 19.75C14.0007 19.75 22.3025 19.75 24.3729 19.1667C25.5151 18.8457 26.4147 17.9393 26.72 16.7383C27.2747 14.5615 27.2747 10.0197 27.2747 10.0197C27.2747 10.0197 27.2747 5.47793 26.72 3.30109ZM11.2855 14.1433V5.89611L18.2242 10.0198L11.2855 14.1433Z"/>
</svg>